# xmcd
#
# Track frame offsets:
#	150
#	3262
#	18909
#	21093
#	40288
#	41240
#	62795
#	69640
#	72869
#	91349
#	115368
#	119152
#	121184
#	122658
#	138513
#	158342
#	169992
#	194867
#	197889
#	214426
#	217625
#
# Disc length: 2921 seconds
#
# Revision: 1
# Processed by: cddbd v1.5.1PL0 Copyright (c) Steve Scherf et al.
# Submitted via: audiograbber 1.83.01
#
DISCID=3a0b6715
DTITLE=Elio E Le Storie Tese - Elio Samaga Hukapan Kariyana Turu
DYEAR=1989
DGENRE=Blues
TTITLE0=Adolescenti A Colloquio. Improvvisamente, Tremoto
TTITLE1=John Holmes (Una Vita Per Il Cinema)
TTITLE2=Domande Bizzarre
TTITLE3=Nubi Di Ieri Sul Domani Odierno (Abitudinario)
TTITLE4=According The Mem Phis Horns
TTITLE5=Carro
TTITLE6=Una Gita A...
TTITLE7=The Fabulous '68s According To Tony Martucci
TTITLE8=Nella Vecchia Azienda Agricola
TTITLE9=Silos
TTITLE10=Cassonetto Differenziato Per Il Frutto Del Peccato
TTITLE11=Introducing The Real Parakramabahu According To Shantha Edirisinghe
TTITLE12=Parakramabahu Rajatuma
TTITLE13=Piattaforma
TTITLE14=Suspense! Il Signor Brando Meets Marlon Brando
TTITLE15=Introducing The Cara Ti Amo
TTITLE16=Cara Ti Amo (Risvolti Psicologici Nei Rapporti Fra Giovani Uomini E Gi
TTITLE16=ovani Donne)
TTITLE17=Messaggio Satanico
TTITLE18=Cateto
TTITLE19=Spuma Da 100
TTITLE20=John Holmes (Shidzu Version)
EXTD=
EXTT0=
EXTT1=
EXTT2=
EXTT3=
EXTT4=
EXTT5=
EXTT6=
EXTT7=
EXTT8=
EXTT9=
EXTT10=
EXTT11=
EXTT12=
EXTT13=
EXTT14=
EXTT15=
EXTT16=
EXTT17=
EXTT18=
EXTT19=
EXTT20=
PLAYORDER=
